  0
SECTION
  2
HEADER
  9
$LIMMIN
 10
400000.000000
 20
5580000.000000
  9
$LIMMAX
 10
402000.000000
 20
5582000.000000
  0
ENDSEC
  0
SECTION
  2
TABLES
  0
TABLE
  2
LTYPE
 70
     1
  0
LTYPE
  2
CONTINUOUS
 70
    64
  3
Solid line
 72
    65
 73
     0
 40
0.0
  0
ENDTAB
  0
TABLE
  2
LAYER
 70
     7
  0
LAYER
  2
0
 70
     0
 62
     7
  6
CONTINUOUS
  0
LAYER
  2
point
 70
    64
 62
     1
  6
CONTINUOUS
  0
LAYER
  2
line
 70
    64
 62
     2
  6
CONTINUOUS
  0
LAYER
  2
boundary
 70
    64
 62
     3
  6
CONTINUOUS
  0
LAYER
  2
centroid
 70
    64
 62
     4
  6
CONTINUOUS
  0
LAYER
  2
point-label
 70
    64
 62
     5
  6
CONTINUOUS
  0
LAYER
  2
centroid-label
 70
    64
 62
     6
  6
CONTINUOUS
  0
ENDTAB
  0
ENDSEC
  0
SECTION
  2
ENTITIES
0
POLYLINE
8
line
66
1
0
VERTEX
8
line
10
401561.460793
20
5580000.000000
 30
0.000000
0
VERTEX
8
line
10
401565.170354
20
5580025.846013
 30
0.000000
  0
SEQEND
  8
line
0
POLYLINE
8
line
66
1
0
VERTEX
8
line
10
401159.032907
20
5580228.746587
 30
0.000000
0
VERTEX
8
line
10
401249.052723
20
5580000.000000
 30
0.000000
  0
SEQEND
  8
line
0
POLYLINE
8
line
66
1
0
VERTEX
8
line
10
401411.153474
20
5580348.182215
 30
0.000000
0
VERTEX
8
line
10
401565.170354
20
5580025.846013
 30
0.000000
  0
SEQEND
  8
line
0
POLYLINE
8
line
66
1
0
VERTEX
8
line
10
401009.702044
20
5580273.079833
 30
0.000000
0
VERTEX
8
line
10
401159.032907
20
5580228.746587
 30
0.000000
  0
SEQEND
  8
line
0
POLYLINE
8
line
66
1
0
VERTEX
8
line
10
401159.032907
20
5580228.746587
 30
0.000000
0
VERTEX
8
line
10
401348.858522
20
5580371.423147
 30
0.000000
  0
SEQEND
  8
line
0
POLYLINE
8
line
66
1
0
VERTEX
8
line
10
401348.858522
20
5580371.423147
 30
0.000000
0
VERTEX
8
line
10
401411.153474
20
5580348.182215
 30
0.000000
  0
SEQEND
  8
line
0
POLYLINE
8
line
66
1
0
VERTEX
8
line
10
401411.153474
20
5580348.182215
 30
0.000000
0
VERTEX
8
line
10
401782.078337
20
5580381.366208
 30
0.000000
  0
SEQEND
  8
line
0
POLYLINE
8
line
66
1
0
VERTEX
8
line
10
401565.170354
20
5580025.846013
 30
0.000000
0
VERTEX
8
line
10
401782.078337
20
5580381.366208
 30
0.000000
  0
SEQEND
  8
line
0
POLYLINE
8
line
66
1
0
VERTEX
8
line
10
401782.078337
20
5580381.366208
 30
0.000000
0
VERTEX
8
line
10
401782.193925
20
5580381.432756
 30
0.000000
  0
SEQEND
  8
line
0
POLYLINE
8
line
66
1
0
VERTEX
8
line
10
400743.918528
20
5580469.430281
 30
0.000000
0
VERTEX
8
line
10
401009.702044
20
5580273.079833
 30
0.000000
  0
SEQEND
  8
line
0
POLYLINE
8
line
66
1
0
VERTEX
8
line
10
401348.811085
20
5580714.804301
 30
0.000000
0
VERTEX
8
line
10
401348.858522
20
5580371.423147
 30
0.000000
  0
SEQEND
  8
line
0
POLYLINE
8
line
66
1
0
VERTEX
8
line
10
401348.811085
20
5580714.804301
 30
0.000000
0
VERTEX
8
line
10
401704.976008
20
5580802.523893
 30
0.000000
  0
SEQEND
  8
line
0
POLYLINE
8
line
66
1
0
VERTEX
8
line
10
401704.976008
20
5580802.523893
 30
0.000000
0
VERTEX
8
line
10
401782.193925
20
5580381.432756
 30
0.000000
  0
SEQEND
  8
line
0
POLYLINE
8
line
66
1
0
VERTEX
8
line
10
400545.786602
20
5580684.752581
 30
0.000000
0
VERTEX
8
line
10
400599.342939
20
5580698.611546
 30
0.000000
  0
SEQEND
  8
line
0
POLYLINE
8
line
66
1
0
VERTEX
8
line
10
400599.342939
20
5580698.611546
 30
0.000000
0
VERTEX
8
line
10
400681.514594
20
5580688.002191
 30
0.000000
  0
SEQEND
  8
line
0
POLYLINE
8
line
66
1
0
VERTEX
8
line
10
400681.514594
20
5580688.002191
 30
0.000000
0
VERTEX
8
line
10
400743.918528
20
5580469.430281
 30
0.000000
  0
SEQEND
  8
line
0
POLYLINE
8
line
66
1
0
VERTEX
8
line
10
401704.976008
20
5580802.523893
 30
0.000000
0
VERTEX
8
line
10
401798.489006
20
5580926.306098
 30
0.000000
  0
SEQEND
  8
line
0
POLYLINE
8
line
66
1
0
VERTEX
8
line
10
400935.613943
20
5580912.390761
 30
0.000000
0
VERTEX
8
line
10
401348.811085
20
5580714.804301
 30
0.000000
  0
SEQEND
  8
line
0
POLYLINE
8
line
66
1
0
VERTEX
8
line
10
400681.514594
20
5580688.002191
 30
0.000000
0
VERTEX
8
line
10
400910.538528
20
5580911.983843
 30
0.000000
  0
SEQEND
  8
line
0
POLYLINE
8
line
66
1
0
VERTEX
8
line
10
400910.538528
20
5580911.983843
 30
0.000000
0
VERTEX
8
line
10
400935.613943
20
5580912.390761
 30
0.000000
  0
SEQEND
  8
line
0
POLYLINE
8
line
66
1
0
VERTEX
8
line
10
400935.613943
20
5580912.390761
 30
0.000000
0
VERTEX
8
line
10
401359.940063
20
5581232.066288
 30
0.000000
  0
SEQEND
  8
line
0
POLYLINE
8
line
66
1
0
VERTEX
8
line
10
400860.300452
20
5581108.753664
 30
0.000000
0
VERTEX
8
line
10
400910.538528
20
5580911.983843
 30
0.000000
  0
SEQEND
  8
line
0
POLYLINE
8
line
66
1
0
VERTEX
8
line
10
401249.078278
20
5581387.444857
 30
0.000000
0
VERTEX
8
line
10
401359.940063
20
5581232.066288
 30
0.000000
  0
SEQEND
  8
line
0
POLYLINE
8
line
66
1
0
VERTEX
8
line
10
400547.766449
20
5581336.354676
 30
0.000000
0
VERTEX
8
line
10
400860.300452
20
5581108.753664
 30
0.000000
  0
SEQEND
  8
line
0
POLYLINE
8
line
66
1
0
VERTEX
8
line
10
401359.940063
20
5581232.066288
 30
0.000000
0
VERTEX
8
line
10
401478.877470
20
5581253.509633
 30
0.000000
  0
SEQEND
  8
line
0
POLYLINE
8
line
66
1
0
VERTEX
8
line
10
401478.877470
20
5581253.509633
 30
0.000000
0
VERTEX
8
line
10
401798.489006
20
5580926.306098
 30
0.000000
  0
SEQEND
  8
line
0
POLYLINE
8
line
66
1
0
VERTEX
8
line
10
400225.876861
20
5581245.199375
 30
0.000000
0
VERTEX
8
line
10
400599.342939
20
5580698.611546
 30
0.000000
  0
SEQEND
  8
line
0
POLYLINE
8
line
66
1
0
VERTEX
8
line
10
400225.876861
20
5581245.199375
 30
0.000000
0
VERTEX
8
line
10
400253.577806
20
5581283.222513
 30
0.000000
  0
SEQEND
  8
line
0
POLYLINE
8
line
66
1
0
VERTEX
8
line
10
400253.577806
20
5581283.222513
 30
0.000000
0
VERTEX
8
line
10
400547.766449
20
5581336.354676
 30
0.000000
  0
SEQEND
  8
line
0
POLYLINE
8
line
66
1
0
VERTEX
8
line
10
401798.489006
20
5580926.306098
 30
0.000000
0
VERTEX
8
line
10
402000.000000
20
5580991.573251
 30
0.000000
  0
SEQEND
  8
line
0
POLYLINE
8
line
66
1
0
VERTEX
8
line
10
400000.000000
20
5580929.726403
 30
0.000000
0
VERTEX
8
line
10
400545.786602
20
5580684.752581
 30
0.000000
  0
SEQEND
  8
line
0
POLYLINE
8
line
66
1
0
VERTEX
8
line
10
400000.000000
20
5581193.097659
 30
0.000000
0
VERTEX
8
line
10
400225.876861
20
5581245.199375
 30
0.000000
  0
SEQEND
  8
line
0
POLYLINE
8
line
66
1
0
VERTEX
8
line
10
401757.795745
20
5581544.272761
 30
0.000000
0
VERTEX
8
line
10
402000.000000
20
5581283.361823
 30
0.000000
  0
SEQEND
  8
line
0
POLYLINE
8
line
66
1
0
VERTEX
8
line
10
400886.354477
20
5581552.165767
 30
0.000000
0
VERTEX
8
line
10
400945.704214
20
5581527.551003
 30
0.000000
  0
SEQEND
  8
line
0
POLYLINE
8
line
66
1
0
VERTEX
8
line
10
400860.300452
20
5581108.753664
 30
0.000000
0
VERTEX
8
line
10
400945.704214
20
5581527.551003
 30
0.000000
  0
SEQEND
  8
line
0
POLYLINE
8
line
66
1
0
VERTEX
8
line
10
400945.704214
20
5581527.551003
 30
0.000000
0
VERTEX
8
line
10
400956.938167
20
5581535.961107
 30
0.000000
  0
SEQEND
  8
line
0
POLYLINE
8
line
66
1
0
VERTEX
8
line
10
400956.938167
20
5581535.961107
 30
0.000000
0
VERTEX
8
line
10
401249.078278
20
5581387.444857
 30
0.000000
  0
SEQEND
  8
line
0
POLYLINE
8
line
66
1
0
VERTEX
8
line
10
400547.766449
20
5581336.354676
 30
0.000000
0
VERTEX
8
line
10
400583.587188
20
5581611.685736
 30
0.000000
  0
SEQEND
  8
line
0
POLYLINE
8
line
66
1
0
VERTEX
8
line
10
400583.587188
20
5581611.685736
 30
0.000000
0
VERTEX
8
line
10
400886.354477
20
5581552.165767
 30
0.000000
  0
SEQEND
  8
line
0
POLYLINE
8
line
66
1
0
VERTEX
8
line
10
401478.877470
20
5581253.509633
 30
0.000000
0
VERTEX
8
line
10
401600.935992
20
5581591.865662
 30
0.000000
  0
SEQEND
  8
line
0
POLYLINE
8
line
66
1
0
VERTEX
8
line
10
401600.935992
20
5581591.865662
 30
0.000000
0
VERTEX
8
line
10
401757.795745
20
5581544.272761
 30
0.000000
  0
SEQEND
  8
line
0
POLYLINE
8
line
66
1
0
VERTEX
8
line
10
401249.078278
20
5581387.444857
 30
0.000000
0
VERTEX
8
line
10
401339.755263
20
5581704.313472
 30
0.000000
  0
SEQEND
  8
line
0
POLYLINE
8
line
66
1
0
VERTEX
8
line
10
400956.938167
20
5581535.961107
 30
0.000000
0
VERTEX
8
line
10
401072.958327
20
5581701.280937
 30
0.000000
  0
SEQEND
  8
line
0
POLYLINE
8
line
66
1
0
VERTEX
8
line
10
401072.958327
20
5581701.280937
 30
0.000000
0
VERTEX
8
line
10
401339.755263
20
5581704.313472
 30
0.000000
  0
SEQEND
  8
line
0
POLYLINE
8
line
66
1
0
VERTEX
8
line
10
401339.755263
20
5581704.313472
 30
0.000000
0
VERTEX
8
line
10
401521.411177
20
5581745.657427
 30
0.000000
  0
SEQEND
  8
line
0
POLYLINE
8
line
66
1
0
VERTEX
8
line
10
401521.411177
20
5581745.657427
 30
0.000000
0
VERTEX
8
line
10
401600.935992
20
5581591.865662
 30
0.000000
  0
SEQEND
  8
line
0
POLYLINE
8
line
66
1
0
VERTEX
8
line
10
400253.577806
20
5581283.222513
 30
0.000000
0
VERTEX
8
line
10
400272.107883
20
5581966.277475
 30
0.000000
  0
SEQEND
  8
line
0
POLYLINE
8
line
66
1
0
VERTEX
8
line
10
400272.107883
20
5581966.277475
 30
0.000000
0
VERTEX
8
line
10
400583.587188
20
5581611.685736
 30
0.000000
  0
SEQEND
  8
line
0
POLYLINE
8
line
66
1
0
VERTEX
8
line
10
400259.161461
20
5582000.000000
 30
0.000000
0
VERTEX
8
line
10
400272.107883
20
5581966.277475
 30
0.000000
  0
SEQEND
  8
line
0
POLYLINE
8
line
66
1
0
VERTEX
8
line
10
400661.994774
20
5582000.000000
 30
0.000000
0
VERTEX
8
line
10
400886.354477
20
5581552.165767
 30
0.000000
  0
SEQEND
  8
line
0
POLYLINE
8
line
66
1
0
VERTEX
8
line
10
401009.702044
20
5580273.079833
 30
0.000000
0
VERTEX
8
line
10
400923.456690
20
5580000.000000
 30
0.000000
  0
SEQEND
  8
line
0
POLYLINE
8
line
66
1
0
VERTEX
8
line
10
400743.918528
20
5580469.430281
 30
0.000000
0
VERTEX
8
line
10
400541.947725
20
5580000.000000
 30
0.000000
  0
SEQEND
  8
line
0
POLYLINE
8
line
66
1
0
VERTEX
8
line
10
400545.786602
20
5580684.752581
 30
0.000000
0
VERTEX
8
line
10
400000.000000
20
5580377.706311
 30
0.000000
  0
SEQEND
  8
line
0
POLYLINE
8
line
66
1
0
VERTEX
8
line
10
401072.958327
20
5581701.280937
 30
0.000000
0
VERTEX
8
line
10
400970.512513
20
5582000.000000
 30
0.000000
  0
SEQEND
  8
line
0
POLYLINE
8
line
66
1
0
VERTEX
8
line
10
401521.411177
20
5581745.657427
 30
0.000000
0
VERTEX
8
line
10
401587.569557
20
5582000.000000
 30
0.000000
  0
SEQEND
  8
line
0
POLYLINE
8
line
66
1
0
VERTEX
8
line
10
401757.795745
20
5581544.272761
 30
0.000000
0
VERTEX
8
line
10
402000.000000
20
5581695.692924
 30
0.000000
  0
SEQEND
  8
line
0
POLYLINE
8
line
66
1
0
VERTEX
8
line
10
401782.193925
20
5580381.432756
 30
0.000000
0
VERTEX
8
line
10
402000.000000
20
5580274.581420
 30
0.000000
  0
SEQEND
  8
line
0
POLYLINE
8
line
66
1
0
VERTEX
8
line
10
400541.947725
20
5580000.000000
 30
0.000000
0
VERTEX
8
line
10
400000.000000
20
5580000.000000
 30
0.000000
  0
SEQEND
  8
line
0
POLYLINE
8
line
66
1
0
VERTEX
8
line
10
400923.456690
20
5580000.000000
 30
0.000000
0
VERTEX
8
line
10
400541.947725
20
5580000.000000
 30
0.000000
  0
SEQEND
  8
line
0
POLYLINE
8
line
66
1
0
VERTEX
8
line
10
401249.052723
20
5580000.000000
 30
0.000000
0
VERTEX
8
line
10
400923.456690
20
5580000.000000
 30
0.000000
  0
SEQEND
  8
line
0
POLYLINE
8
line
66
1
0
VERTEX
8
line
10
401561.460793
20
5580000.000000
 30
0.000000
0
VERTEX
8
line
10
401249.052723
20
5580000.000000
 30
0.000000
  0
SEQEND
  8
line
0
POLYLINE
8
line
66
1
0
VERTEX
8
line
10
402000.000000
20
5580000.000000
 30
0.000000
0
VERTEX
8
line
10
401561.460793
20
5580000.000000
 30
0.000000
  0
SEQEND
  8
line
0
POLYLINE
8
line
66
1
0
VERTEX
8
line
10
402000.000000
20
5580274.581420
 30
0.000000
0
VERTEX
8
line
10
402000.000000
20
5580000.000000
 30
0.000000
  0
SEQEND
  8
line
0
POLYLINE
8
line
66
1
0
VERTEX
8
line
10
402000.000000
20
5580991.573251
 30
0.000000
0
VERTEX
8
line
10
402000.000000
20
5580274.581420
 30
0.000000
  0
SEQEND
  8
line
0
POLYLINE
8
line
66
1
0
VERTEX
8
line
10
402000.000000
20
5581283.361823
 30
0.000000
0
VERTEX
8
line
10
402000.000000
20
5580991.573251
 30
0.000000
  0
SEQEND
  8
line
0
POLYLINE
8
line
66
1
0
VERTEX
8
line
10
402000.000000
20
5581695.692924
 30
0.000000
0
VERTEX
8
line
10
402000.000000
20
5581283.361823
 30
0.000000
  0
SEQEND
  8
line
0
POLYLINE
8
line
66
1
0
VERTEX
8
line
10
402000.000000
20
5582000.000000
 30
0.000000
0
VERTEX
8
line
10
402000.000000
20
5581695.692924
 30
0.000000
  0
SEQEND
  8
line
0
POLYLINE
8
line
66
1
0
VERTEX
8
line
10
401587.569557
20
5582000.000000
 30
0.000000
0
VERTEX
8
line
10
402000.000000
20
5582000.000000
 30
0.000000
  0
SEQEND
  8
line
0
POLYLINE
8
line
66
1
0
VERTEX
8
line
10
400970.512513
20
5582000.000000
 30
0.000000
0
VERTEX
8
line
10
401587.569557
20
5582000.000000
 30
0.000000
  0
SEQEND
  8
line
0
POLYLINE
8
line
66
1
0
VERTEX
8
line
10
400661.994774
20
5582000.000000
 30
0.000000
0
VERTEX
8
line
10
400970.512513
20
5582000.000000
 30
0.000000
  0
SEQEND
  8
line
0
POLYLINE
8
line
66
1
0
VERTEX
8
line
10
400259.161461
20
5582000.000000
 30
0.000000
0
VERTEX
8
line
10
400661.994774
20
5582000.000000
 30
0.000000
  0
SEQEND
  8
line
0
POLYLINE
8
line
66
1
0
VERTEX
8
line
10
400000.000000
20
5582000.000000
 30
0.000000
0
VERTEX
8
line
10
400259.161461
20
5582000.000000
 30
0.000000
  0
SEQEND
  8
line
0
POLYLINE
8
line
66
1
0
VERTEX
8
line
10
400000.000000
20
5581193.097659
 30
0.000000
0
VERTEX
8
line
10
400000.000000
20
5582000.000000
 30
0.000000
  0
SEQEND
  8
line
0
POLYLINE
8
line
66
1
0
VERTEX
8
line
10
400000.000000
20
5580929.726403
 30
0.000000
0
VERTEX
8
line
10
400000.000000
20
5581193.097659
 30
0.000000
  0
SEQEND
  8
line
0
POLYLINE
8
line
66
1
0
VERTEX
8
line
10
400000.000000
20
5580377.706311
 30
0.000000
0
VERTEX
8
line
10
400000.000000
20
5580929.726403
 30
0.000000
  0
SEQEND
  8
line
0
POLYLINE
8
line
66
1
0
VERTEX
8
line
10
400000.000000
20
5580000.000000
 30
0.000000
0
VERTEX
8
line
10
400000.000000
20
5580377.706311
 30
0.000000
  0
SEQEND
  8
line
0
POINT
8
centroid
10
401163.984690
20
5580489.670252
30
0.000000
  0
TEXT
  8
centroid-label
 10
401163.984690
 20
5580489.670252
 30
0.000000
 40
6.000000
  1
1
 72
     4
 11
401163.984690
 21
5580489.670252
 31
0.000000
0
POINT
8
centroid
10
400825.541085
20
5581775.898979
30
0.000000
  0
TEXT
  8
centroid-label
 10
400825.541085
 20
5581775.898979
 30
0.000000
 40
6.000000
  1
2
 72
     4
 11
400825.541085
 21
5581775.898979
 31
0.000000
0
POINT
8
centroid
10
400194.050274
20
5580969.841107
30
0.000000
  0
TEXT
  8
centroid-label
 10
400194.050274
 20
5580969.841107
 30
0.000000
 40
6.000000
  1
3
 72
     4
 11
400194.050274
 21
5580969.841107
 31
0.000000
0
POINT
8
centroid
10
400376.487527
20
5580264.833856
30
0.000000
  0
TEXT
  8
centroid-label
 10
400376.487527
 20
5580264.833856
 30
0.000000
 40
6.000000
  1
4
 72
     4
 11
400376.487527
 21
5580264.833856
 31
0.000000
0
POINT
8
centroid
10
400685.046035
20
5581437.145204
30
0.000000
  0
TEXT
  8
centroid-label
 10
400685.046035
 20
5581437.145204
 30
0.000000
 40
6.000000
  1
5
 72
     4
 11
400685.046035
 21
5581437.145204
 31
0.000000
0
POINT
8
centroid
10
401020.805557
20
5580007.389682
30
0.000000
  0
TEXT
  8
centroid-label
 10
401020.805557
 20
5580007.389682
 30
0.000000
 40
6.000000
  1
6
 72
     4
 11
401020.805557
 21
5580007.389682
 31
0.000000
0
POINT
8
centroid
10
401556.877531
20
5580230.643323
30
0.000000
  0
TEXT
  8
centroid-label
 10
401556.877531
 20
5580230.643323
 30
0.000000
 40
6.000000
  1
7
 72
     4
 11
401556.877531
 21
5580230.643323
 31
0.000000
0
POINT
8
centroid
10
401751.074829
20
5580112.160759
30
0.000000
  0
TEXT
  8
centroid-label
 10
401751.074829
 20
5580112.160759
 30
0.000000
 40
6.000000
  1
8
 72
     4
 11
401751.074829
 21
5580112.160759
 31
0.000000
0
POINT
8
centroid
10
400099.000925
20
5580758.077007
30
0.000000
  0
TEXT
  8
centroid-label
 10
400099.000925
 20
5580758.077007
 30
0.000000
 40
6.000000
  1
9
 72
     4
 11
400099.000925
 21
5580758.077007
 31
0.000000
0
POINT
8
centroid
10
400743.567040
20
5581734.830943
30
0.000000
  0
TEXT
  8
centroid-label
 10
400743.567040
 20
5581734.830943
 30
0.000000
 40
6.000000
  1
10
 72
     4
 11
400743.567040
 21
5581734.830943
 31
0.000000
0
POINT
8
centroid
10
401976.096825
20
5580570.846251
30
0.000000
  0
TEXT
  8
centroid-label
 10
401976.096825
 20
5580570.846251
 30
0.000000
 40
6.000000
  1
11
 72
     4
 11
401976.096825
 21
5580570.846251
 31
0.000000
0
POINT
8
centroid
10
401863.502924
20
5581745.305166
30
0.000000
  0
TEXT
  8
centroid-label
 10
401863.502924
 20
5581745.305166
 30
0.000000
 40
6.000000
  1
12
 72
     4
 11
401863.502924
 21
5581745.305166
 31
0.000000
0
POINT
8
centroid
10
401984.818400
20
5581551.254892
30
0.000000
  0
TEXT
  8
centroid-label
 10
401984.818400
 20
5581551.254892
 30
0.000000
 40
6.000000
  1
13
 72
     4
 11
401984.818400
 21
5581551.254892
 31
0.000000
0
POINT
8
centroid
10
400493.970948
20
5581174.767363
30
0.000000
  0
TEXT
  8
centroid-label
 10
400493.970948
 20
5581174.767363
 30
0.000000
 40
6.000000
  1
14
 72
     4
 11
400493.970948
 21
5581174.767363
 31
0.000000
0
POINT
8
centroid
10
401533.699676
20
5580489.721327
30
0.000000
  0
TEXT
  8
centroid-label
 10
401533.699676
 20
5580489.721327
 30
0.000000
 40
6.000000
  1
15
 72
     4
 11
401533.699676
 21
5580489.721327
 31
0.000000
0
POINT
8
centroid
10
400440.846051
20
5581468.915771
30
0.000000
  0
TEXT
  8
centroid-label
 10
400440.846051
 20
5581468.915771
 30
0.000000
 40
6.000000
  1
16
 72
     4
 11
400440.846051
 21
5581468.915771
 31
0.000000
0
POINT
8
centroid
10
401222.505987
20
5581912.038241
30
0.000000
  0
TEXT
  8
centroid-label
 10
401222.505987
 20
5581912.038241
 30
0.000000
 40
6.000000
  1
17
 72
     4
 11
401222.505987
 21
5581912.038241
 31
0.000000
0
POINT
8
centroid
10
401411.047034
20
5580160.963411
30
0.000000
  0
TEXT
  8
centroid-label
 10
401411.047034
 20
5580160.963411
 30
0.000000
 40
6.000000
  1
18
 72
     4
 11
401411.047034
 21
5580160.963411
 31
0.000000
0
POINT
8
centroid
10
400848.010951
20
5580061.962485
30
0.000000
  0
TEXT
  8
centroid-label
 10
400848.010951
 20
5580061.962485
 30
0.000000
 40
6.000000
  1
19
 72
     4
 11
400848.010951
 21
5580061.962485
 31
0.000000
0
POINT
8
centroid
10
401733.974019
20
5581318.395446
30
0.000000
  0
TEXT
  8
centroid-label
 10
401733.974019
 20
5581318.395446
 30
0.000000
 40
6.000000
  1
20
 72
     4
 11
401733.974019
 21
5581318.395446
 31
0.000000
0
POINT
8
centroid
10
401150.148459
20
5581342.298621
30
0.000000
  0
TEXT
  8
centroid-label
 10
401150.148459
 20
5581342.298621
 30
0.000000
 40
6.000000
  1
21
 72
     4
 11
401150.148459
 21
5581342.298621
 31
0.000000
0
POINT
8
centroid
10
400076.652647
20
5581478.795697
30
0.000000
  0
TEXT
  8
centroid-label
 10
400076.652647
 20
5581478.795697
 30
0.000000
 40
6.000000
  1
22
 72
     4
 11
400076.652647
 21
5581478.795697
 31
0.000000
0
POINT
8
centroid
10
401227.257858
20
5581493.977298
30
0.000000
  0
TEXT
  8
centroid-label
 10
401227.257858
 20
5581493.977298
 30
0.000000
 40
6.000000
  1
23
 72
     4
 11
401227.257858
 21
5581493.977298
 31
0.000000
0
POINT
8
centroid
10
401408.021961
20
5581000.006349
30
0.000000
  0
TEXT
  8
centroid-label
 10
401408.021961
 20
5581000.006349
 30
0.000000
 40
6.000000
  1
24
 72
     4
 11
401408.021961
 21
5581000.006349
 31
0.000000
0
POINT
8
centroid
10
401323.952208
20
5581466.306674
30
0.000000
  0
TEXT
  8
centroid-label
 10
401323.952208
 20
5581466.306674
 30
0.000000
 40
6.000000
  1
25
 72
     4
 11
401323.952208
 21
5581466.306674
 31
0.000000
  0
ENDSEC
  0
EOF
