  0
SECTION
  2
HEADER
  9
$LIMMIN
 10
400076.652647
 20
5580007.389682
  9
$LIMMAX
 10
401984.818400
 20
5581912.038241
  0
ENDSEC
  0
SECTION
  2
TABLES
  0
TABLE
  2
LTYPE
 70
     1
  0
LTYPE
  2
CONTINUOUS
 70
    64
  3
Solid line
 72
    65
 73
     0
 40
0.0
  0
ENDTAB
  0
TABLE
  2
LAYER
 70
     7
  0
LAYER
  2
0
 70
     0
 62
     7
  6
CONTINUOUS
  0
LAYER
  2
point
 70
    64
 62
     1
  6
CONTINUOUS
  0
LAYER
  2
line
 70
    64
 62
     2
  6
CONTINUOUS
  0
LAYER
  2
boundary
 70
    64
 62
     3
  6
CONTINUOUS
  0
LAYER
  2
centroid
 70
    64
 62
     4
  6
CONTINUOUS
  0
LAYER
  2
point-label
 70
    64
 62
     5
  6
CONTINUOUS
  0
LAYER
  2
centroid-label
 70
    64
 62
     6
  6
CONTINUOUS
  0
ENDTAB
  0
ENDSEC
  0
SECTION
  2
ENTITIES
0
POINT
8
point
10
401163.984690
20
5580489.670252
30
111.259390
  0
TEXT
  8
point-label
 10
401163.984690
 20
5580489.670252
 30
111.259390
 40
5.724497
  1
1
 72
     4
 11
401163.984690
 21
5580489.670252
 31
111.259390
0
POINT
8
point
10
400825.541085
20
5581775.898979
30
287.868453
  0
TEXT
  8
point-label
 10
400825.541085
 20
5581775.898979
 30
287.868453
 40
5.724497
  1
2
 72
     4
 11
400825.541085
 21
5581775.898979
 31
287.868453
0
POINT
8
point
10
400194.050274
20
5580969.841107
30
249.084745
  0
TEXT
  8
point-label
 10
400194.050274
 20
5580969.841107
 30
249.084745
 40
5.724497
  1
3
 72
     4
 11
400194.050274
 21
5580969.841107
 31
249.084745
0
POINT
8
point
10
400376.487527
20
5580264.833856
30
196.027127
  0
TEXT
  8
point-label
 10
400376.487527
 20
5580264.833856
 30
196.027127
 40
5.724497
  1
4
 72
     4
 11
400376.487527
 21
5580264.833856
 31
196.027127
0
POINT
8
point
10
400685.046035
20
5581437.145204
30
209.285362
  0
TEXT
  8
point-label
 10
400685.046035
 20
5581437.145204
 30
209.285362
 40
5.724497
  1
5
 72
     4
 11
400685.046035
 21
5581437.145204
 31
209.285362
0
POINT
8
point
10
401020.805557
20
5580007.389682
30
221.834006
  0
TEXT
  8
point-label
 10
401020.805557
 20
5580007.389682
 30
221.834006
 40
5.724497
  1
6
 72
     4
 11
401020.805557
 21
5580007.389682
 31
221.834006
0
POINT
8
point
10
401556.877531
20
5580230.643323
30
281.145895
  0
TEXT
  8
point-label
 10
401556.877531
 20
5580230.643323
 30
281.145895
 40
5.724497
  1
7
 72
     4
 11
401556.877531
 21
5580230.643323
 31
281.145895
0
POINT
8
point
10
401751.074829
20
5580112.160759
30
156.303608
  0
TEXT
  8
point-label
 10
401751.074829
 20
5580112.160759
 30
156.303608
 40
5.724497
  1
8
 72
     4
 11
401751.074829
 21
5580112.160759
 31
156.303608
0
POINT
8
point
10
400099.000925
20
5580758.077007
30
211.403693
  0
TEXT
  8
point-label
 10
400099.000925
 20
5580758.077007
 30
211.403693
 40
5.724497
  1
9
 72
     4
 11
400099.000925
 21
5580758.077007
 31
211.403693
0
POINT
8
point
10
400743.567040
20
5581734.830943
30
158.382556
  0
TEXT
  8
point-label
 10
400743.567040
 20
5581734.830943
 30
158.382556
 40
5.724497
  1
10
 72
     4
 11
400743.567040
 21
5581734.830943
 31
158.382556
0
POINT
8
point
10
401976.096825
20
5580570.846251
30
207.349581
  0
TEXT
  8
point-label
 10
401976.096825
 20
5580570.846251
 30
207.349581
 40
5.724497
  1
11
 72
     4
 11
401976.096825
 21
5580570.846251
 31
207.349581
0
POINT
8
point
10
401863.502924
20
5581745.305166
30
184.939479
  0
TEXT
  8
point-label
 10
401863.502924
 20
5581745.305166
 30
184.939479
 40
5.724497
  1
12
 72
     4
 11
401863.502924
 21
5581745.305166
 31
184.939479
0
POINT
8
point
10
401984.818400
20
5581551.254892
30
281.923590
  0
TEXT
  8
point-label
 10
401984.818400
 20
5581551.254892
 30
281.923590
 40
5.724497
  1
13
 72
     4
 11
401984.818400
 21
5581551.254892
 31
281.923590
0
POINT
8
point
10
400493.970948
20
5581174.767363
30
108.406975
  0
TEXT
  8
point-label
 10
400493.970948
 20
5581174.767363
 30
108.406975
 40
5.724497
  1
14
 72
     4
 11
400493.970948
 21
5581174.767363
 31
108.406975
0
POINT
8
point
10
401533.699676
20
5580489.721327
30
252.121496
  0
TEXT
  8
point-label
 10
401533.699676
 20
5580489.721327
 30
252.121496
 40
5.724497
  1
15
 72
     4
 11
401533.699676
 21
5580489.721327
 31
252.121496
0
POINT
8
point
10
400440.846051
20
5581468.915771
30
252.860464
  0
TEXT
  8
point-label
 10
400440.846051
 20
5581468.915771
 30
252.860464
 40
5.724497
  1
16
 72
     4
 11
400440.846051
 21
5581468.915771
 31
252.860464
0
POINT
8
point
10
401222.505987
20
5581912.038241
30
275.924796
  0
TEXT
  8
point-label
 10
401222.505987
 20
5581912.038241
 30
275.924796
 40
5.724497
  1
17
 72
     4
 11
401222.505987
 21
5581912.038241
 31
275.924796
0
POINT
8
point
10
401411.047034
20
5580160.963411
30
287.140872
  0
TEXT
  8
point-label
 10
401411.047034
 20
5580160.963411
 30
287.140872
 40
5.724497
  1
18
 72
     4
 11
401411.047034
 21
5580160.963411
 31
287.140872
0
POINT
8
point
10
400848.010951
20
5580061.962485
30
162.948573
  0
TEXT
  8
point-label
 10
400848.010951
 20
5580061.962485
 30
162.948573
 40
5.724497
  1
19
 72
     4
 11
400848.010951
 21
5580061.962485
 31
162.948573
0
POINT
8
point
10
401733.974019
20
5581318.395446
30
136.431667
  0
TEXT
  8
point-label
 10
401733.974019
 20
5581318.395446
 30
136.431667
 40
5.724497
  1
20
 72
     4
 11
401733.974019
 21
5581318.395446
 31
136.431667
0
POINT
8
point
10
401150.148459
20
5581342.298621
30
193.516292
  0
TEXT
  8
point-label
 10
401150.148459
 20
5581342.298621
 30
193.516292
 40
5.724497
  1
21
 72
     4
 11
401150.148459
 21
5581342.298621
 31
193.516292
0
POINT
8
point
10
400076.652647
20
5581478.795697
30
168.046809
  0
TEXT
  8
point-label
 10
400076.652647
 20
5581478.795697
 30
168.046809
 40
5.724497
  1
22
 72
     4
 11
400076.652647
 21
5581478.795697
 31
168.046809
0
POINT
8
point
10
401227.257858
20
5581493.977298
30
123.172298
  0
TEXT
  8
point-label
 10
401227.257858
 20
5581493.977298
 30
123.172298
 40
5.724497
  1
23
 72
     4
 11
401227.257858
 21
5581493.977298
 31
123.172298
0
POINT
8
point
10
401408.021961
20
5581000.006349
30
240.649034
  0
TEXT
  8
point-label
 10
401408.021961
 20
5581000.006349
 30
240.649034
 40
5.724497
  1
24
 72
     4
 11
401408.021961
 21
5581000.006349
 31
240.649034
0
POINT
8
point
10
401323.952208
20
5581466.306674
30
289.621167
  0
TEXT
  8
point-label
 10
401323.952208
 20
5581466.306674
 30
289.621167
 40
5.724497
  1
25
 72
     4
 11
401323.952208
 21
5581466.306674
 31
289.621167
  0
ENDSEC
  0
EOF
